Coordinates
nRows=8
nColumns=38

# SIMM Motion File Header:
name Coordinates
datacolumns 38
datarows 8
otherdata 1
range 0.49167000000000000000 0.49867000000000000000

Units are S.I. units (second, meters, Newtons, ...)
Angles are in degrees.

endheader
time	pelvis_tilt	pelvis_list	pelvis_rotation	pelvis_tx	pelvis_ty	pelvis_tz	hip_flexion_r	hip_adduction_r	hip_rotation_r	knee_angle_r	ankle_angle_r	subtalar_angle_r	mtp_angle_r	hip_flexion_l	hip_adduction_l	hip_rotation_l	knee_angle_l	ankle_angle_l	subtalar_angle_l	mtp_angle_l	lumbar_extension	lumbar_bending	lumbar_rotation	arm_flex_r	arm_add_r	arm_rot_r	elbow_flex_r	pro_sup_r	wrist_flex_r	wrist_dev_r	arm_flex_l	arm_add_l	arm_rot_l	elbow_flex_l	pro_sup_l	wrist_flex_l	wrist_dev_l
      0.49167000000000000000	     -3.39833719381209990000	      1.11195493417853710000	     -3.08824238597077060000	      0.92287323177976999000	      1.01477155438656850000	     -0.28866081882597350000	     25.72280876198317000000	      4.14919698324900740000	     11.11648358162298700000	    -12.46323275397222800000	      8.54577738371070340000	      0.00000000000000000000	      0.00000000000000000000	    -14.11597514455978200000	      5.77313308211661620000	     -0.72651659553629844000	    -48.76400242080912100000	    -21.18796300845009000000	      0.00000000000000000000	      0.00000000000000000000	     -6.57229544542485030000	      1.34496385913503120000	    -15.61063299056563700000	    -49.15648657220940300000	    -24.85047777756033200000	     -7.87959776062454240000	     86.10076029985413000000	    105.06800223117008000000	      0.00000000000000000000	      0.00000000000000000000	    -28.47315092673174800000	    -22.37304667262121100000	      2.72893335261630020000	    123.81675009341613000000	    115.58061748607192000000	      0.00000000000000000000	      0.00000000000000000000
      0.49267000000000000000	     -3.35455612440844900000	      1.06469859589942730000	     -3.12338799205740750000	      0.92281668289100705000	      1.01421592278003050000	     -0.28854604653737270000	     25.63845288682052400000	      4.23405088159473570000	     11.06966164149829300000	    -12.57001518535433800000	      8.59203321034617320000	      0.00000000000000000072	     -0.00000000000000000027	    -13.92555210065567400000	      5.67560192322862010000	     -0.90282597709924517000	    -49.41038518704883100000	    -21.01912646928349200000	     -0.00000000000000000005	      0.00000000000000000024	     -6.65004796832267250000	      1.39764568682571460000	    -15.50179823209322000000	    -49.05047024193575600000	    -24.85040975046592500000	     -7.83545503082246860000	     86.07654179300809000000	    105.04251947564593000000	      0.00000000000000000025	      0.00000000000000000045	    -28.48539722765882200000	    -22.29904600164707400000	      2.72364524246241220000	    123.69107961673282000000	    115.59223625000396000000	     -0.00000000000000000023	     -0.00000000000000000003
      0.49367000000000000000	     -3.31240905015845670000	      1.01662673398117250000	     -3.15796933418517600000	      0.92275964985152270000	      1.01364876044371700000	     -0.28843214224150887000	     25.55456911251675200000	      4.31937002412029080000	     11.02467170708204600000	    -12.67828912096777400000	      8.63514291640848160000	      0.00000000000000000351	     -0.00000000000000000341	    -13.73272288935979900000	      5.57569653578885390000	     -1.07798115583489170000	    -50.05630157389135300000	    -20.84911405562647600000	     -0.00000000000000000086	      0.00000000000000000111	     -6.72592421824776300000	      1.45132868800505620000	    -15.39267779099379000000	    -48.94381420667137700000	    -24.85151462052285300000	     -7.79019381357995930000	     86.05230692786830100000	    105.01492808718092000000	      0.00000000000000000072	      0.00000000000000000182	    -28.49761444811527900000	    -22.22405713615909700000	      2.71785873042068720000	    123.56367089874702000000	    115.60220946119797000000	     -0.00000000000000000026	      0.00000000000000000045
      0.49467000000000000000	     -3.27192626368985450000	      0.96768645108876439000	     -3.19208381147680150000	      0.92270201787392847000	      1.01307016935209710000	     -0.28831901777635555000	     25.47127155709718200000	      4.40521273163795610000	     10.98133532087858200000	    -12.78806494190589000000	      8.66950996355456030000	      0.00000000000000000788	     -0.00000000000000000834	    -13.53748256074329600000	      5.47339678421188400000	     -1.25201722141408610000	    -50.70167685232244300000	    -20.67792924348058700000	     -0.00000000000000000308	      0.00000000000000000178	     -6.79990664568585680000	      1.50607718019337410000	    -15.28316273051894400000	    -48.83649911192663500000	    -24.85380968195558900000	     -7.74381519216616180000	     86.02804739971578800000	    104.98525795347460000000	      0.00000000000000000128	      0.00000000000000000458	    -28.50975148630281100000	    -22.14807900401935500000	      2.71160747260204000000	    123.43449148677952000000	    115.61059300784945000000	      0.00000000000000000003	      0.00000000000000000070
      0.49567000000000000000	     -3.23309554042627760000	      0.91792502386313968000	     -3.22571804784645440000	      0.92264383909498360000	      1.01248013877939360000	     -0.28820669032795054000	     25.38852646006135300000	      4.49152757515685240000	     10.93971850303813700000	    -12.89918681463634800000	      8.69554678656782800000	      0.00000000000000001337	     -0.00000000000000001353	    -13.33988889594511000000	      5.36877340287075370000	     -1.42481874106782010000	    -51.34641589112697300000	    -20.50557498202015000000	     -0.00000000000000000552	      0.00000000000000000263	     -6.87199249767469760000	      1.56184030883452720000	    -15.17326755587403000000	    -48.72854799263908600000	    -24.85729019307564500000	     -7.69631729208627660000	     86.00379055980157300000	    104.95356372463428000000	      0.00000000000000000243	      0.00000000000000000859	    -28.52181068739749700000	    -22.07115740262215200000	      2.70490275287850680000	    123.30357182481842000000	    115.61743980867003000000	      0.00000000000000000060	      0.00000000000000000176
      0.49667000000000000000	     -3.19602092195714030000	      0.86738480392403183000	     -3.25893527724720490000	      0.92258509468276806000	      1.01187851146026150000	     -0.28809507171242760000	     25.30647997635638500000	      4.57831975390590800000	     10.90008060766290000000	    -13.01159409826071900000	      8.71240205992320860000	      0.00000000000000001910	     -0.00000000000000002296	    -13.13986173358045100000	      5.26190197807161650000	     -1.59635349096201230000	    -51.99044903581977900000	    -20.33204031401263700000	     -0.00000000000000000817	      0.00000000000000000336	     -6.94205339743306560000	      1.61857411516157690000	    -15.06293142421705300000	    -48.61999470677172000000	    -24.86195296126728800000	     -7.64770136697417960000	     85.97954835021664600000	    104.91990846952302000000	      0.00000000000000000418	      0.00000000000000001253	    -28.53380101898865100000	    -21.99332160427452700000	      2.69776159617997770000	    123.17092180428580000000	    115.62281603082216000000	      0.00000000000000000162	      0.00000000000000000359
      0.49767000000000000000	     -3.16078111127182070000	      0.81619764728459088000	     -3.29223407549515600000	      0.92252575030192419000	      1.01126508512231240000	     -0.28798351394532795000	     25.22534392915598600000	      4.66566427657053580000	     10.86244358055388500000	    -13.12539158814470000000	      8.71997083859191240000	      0.00000000000000002960	     -0.00000000000000003521	    -12.93741305428685900000	      5.15304726606694970000	     -1.76697133662260360000	    -52.63354813476781400000	    -20.15737592015396700000	     -0.00000000000000001150	      0.00000000000000000675	     -7.00999333586348340000	      1.67609786481558440000	    -14.95168278397081900000	    -48.51090765403579800000	    -24.86779116522396600000	     -7.59797328156392740000	     85.95535532462717800000	    104.88435402077569000000	      0.00000000000000000641	      0.00000000000000001482	    -28.54571886105279400000	    -21.91460244176526500000	      2.69020246928709960000	    123.03656694829557000000	    115.62679063736481000000	      0.00000000000000000228	      0.00000000000000000523
      0.49867000000000000000	     -3.12742893664613410000	      0.76441451444373998000	     -3.32567626955751420000	      0.92246578073870578000	      1.01063977120318720000	     -0.28787193473092137000	     25.14522728998912600000	      4.75354240113873590000	     10.82678644209298500000	    -13.24055871811638100000	      8.71789587100760240000	      0.00000000000000003801	     -0.00000000000000004852	    -12.73251932279789100000	      5.04229676558069960000	     -1.93663111437452120000	    -53.27563638068489400000	    -19.98158046079653300000	     -0.00000000000000001507	      0.00000000000000001184	     -7.07574416121241610000	      1.73435433105067530000	    -14.83946613840738000000	    -48.40132163305823100000	    -24.87478790024435300000	     -7.54713466553665670000	     85.93122533014064900000	    104.84697872719667000000	      0.00000000000000001315	      0.00000000000000001738	    -28.55755638818304500000	    -21.83504192244658200000	      2.68224333746637720000	    122.90052141529831000000	    115.62942781710323000000	      0.00000000000000000298	      0.00000000000000000708
